# Blender v2.76 (sub 0) OBJ File: 'ea.blend'
# www.blender.org
mtllib ea.mtl
o Cube
v 1.000001 -0.107988 -2.020662
v 0.999999 -0.107988 2.020663
v -1.000001 -0.107987 2.020662
v -0.999999 -0.107987 -2.020664
v 1.000001 0.107987 -2.020661
v 0.999999 0.107987 2.020664
v -1.000001 0.107988 2.020662
v -0.999999 0.107988 -2.020663
vt 0.961714 0.862233
vt 0.961698 0.243092
vt 0.621159 0.243180
vt 0.621176 0.862322
vt 0.480788 0.867787
vt 0.120924 0.867787
vt 0.120924 0.249850
vt 0.480788 0.249850
vt 0.586914 0.870769
vt 0.521070 0.870769
vt 0.521070 0.241290
vt 0.586914 0.241290
vt 0.473496 0.128291
vt 0.473496 0.195051
vt 0.120450 0.195051
vt 0.120450 0.128291
vt 0.079884 0.247386
vt 0.015698 0.247385
vt 0.015698 0.871982
vt 0.079884 0.871984
vt 0.115252 0.969315
vt 0.115252 0.895144
vt 0.511264 0.895144
vt 0.511264 0.969315
vn -0.000000 -1.000000 0.000000
vn 0.000000 1.000000 0.000000
vn 1.000000 0.000000 0.000000
vn -0.000000 -0.000000 1.000000
vn -1.000000 -0.000000 -0.000000
vn 0.000000 0.000000 -1.000000
usemtl Material
s off
f 1/1/1 2/2/1 3/3/1 4/4/1
f 5/5/2 8/6/2 7/7/2 6/8/2
f 1/9/3 5/10/3 6/11/3 2/12/3
f 2/13/4 6/14/4 7/15/4 3/16/4
f 3/17/5 7/18/5 8/19/5 4/20/5
f 5/21/6 1/22/6 4/23/6 8/24/6
