# 3ds Max Wavefront OBJ Exporter v0.97b - (c)2007 guruware
# File Created: 01.02.2018 14:29:05

mtllib SM_Fence_001.mtl

#
# object SM_Fence_001
#

v  -266.3712 -58.9729 12.8037
v  -266.3712 -59.1645 12.3671
v  -265.3541 -60.1202 12.6925
v  -265.3541 -59.9265 13.1394
v  -264.2876 -58.9729 12.8037
v  -264.2876 -59.1645 12.3671
v  -266.1216 -57.7347 11.8802
v  -264.2876 -57.7347 11.8802
v  -266.3712 -51.2832 11.8839
v  -264.4711 -51.2832 11.8839
v  -266.1216 -57.7347 12.3679
v  -266.3712 -51.2832 12.3715
v  -264.4711 -51.2832 12.3715
v  -264.2876 -57.7347 12.3679
v  -266.3712 -45.6844 12.3715
v  -265.3541 -44.6784 12.3715
v  -265.3541 -44.6784 11.8839
v  -266.3712 -45.6844 11.8839
v  -264.2876 -45.6844 12.3715
v  -264.2876 -45.6844 11.8839
v  -252.9371 -37.5245 10.2791
v  -262.8199 -37.5245 10.6149
v  -262.8199 -36.1795 10.6149
v  -252.9371 -34.8966 11.5664
v  -252.9371 -34.8966 10.2791
v  -262.8199 -34.8966 10.6149
v  -262.8199 -34.8966 11.0229
v  -252.9371 -37.5245 11.5664
v  -262.8199 -37.5245 11.0229
v  -269.9420 -34.5319 11.0365
v  -269.8109 -34.5434 10.0912
v  -271.1818 -35.7112 9.9729
v  -271.3129 -35.6997 10.9182
v  -264.9229 -34.8356 10.5455
v  -265.3510 -36.0628 10.5260
v  -265.0525 -34.8128 10.9111
v  -265.5088 -37.4007 10.9111
v  -265.3792 -37.4236 10.5455
v  -270.1711 -37.1497 11.0365
v  -270.0400 -37.1612 10.0912
v  -252.9371 -29.7980 11.5664
v  -252.9371 -29.7980 10.6149
v  -262.2760 -29.6068 10.6149
v  -262.2760 -29.6068 11.5664
v  -253.4962 -32.4259 11.5664
v  -262.2760 -30.8896 11.5664
v  -262.2760 -31.9660 10.9889
v  -260.3705 -32.0658 11.5664
v  -262.0384 -31.1810 10.9570
v  -268.6558 -29.7980 11.5663
v  -268.6558 -29.7980 10.6149
v  -269.9245 -31.0808 10.6149
v  -269.9245 -31.0808 11.5663
v  -262.2760 -31.9660 10.6149
v  -264.1359 -32.0920 11.5664
v  -253.4962 -32.4259 10.6149
v  -260.7164 -31.5288 11.5664
v  -268.6558 -32.4259 11.5663
v  -268.6558 -32.4259 10.6149
v  -252.9371 -49.2076 11.5664
v  -252.9371 -49.2076 10.6149
v  -260.3581 -49.2126 10.6149
v  -260.3581 -49.2126 11.5664
v  -252.9371 -51.8355 11.5664
v  -260.1290 -51.8305 11.5664
v  -252.9371 -51.8355 10.6149
v  -260.1290 -51.8305 10.6149
v  -269.8028 -49.7540 11.5663
v  -269.8028 -49.7540 10.6149
v  -270.8294 -51.2377 10.6149
v  -270.8294 -51.2377 11.5663
v  -269.3464 -52.3420 11.5663
v  -269.3464 -52.3420 10.6149
v  -252.9371 -60.0172 10.6149
v  -268.6558 -60.0172 10.6149
v  -269.9245 -58.6722 10.6149
v  -252.9371 -57.3894 10.6149
v  -268.6558 -57.3894 10.6149
v  -268.6558 -57.3894 11.5663
v  -252.9371 -57.3894 11.5664
v  -269.9245 -58.6722 11.5663
v  -252.9371 -60.0172 11.5664
v  -268.6558 -60.0172 11.5663
v  -252.9371 -43.7485 11.8250
v  -268.6558 -43.7485 11.8250
v  -269.9245 -45.0936 11.8250
v  -252.9371 -46.3764 11.8250
v  -268.6558 -46.3764 11.8250
v  -268.6558 -46.3764 10.8735
v  -252.9371 -46.3764 10.8735
v  -269.9245 -45.0936 10.8735
v  -252.9371 -43.7485 10.8735
v  -268.6558 -43.7485 10.8735
v  -262.5636 -47.2857 12.3409
v  -262.5636 -47.2857 11.8533
v  -261.7366 -48.4529 11.8533
v  -261.7366 -48.4529 12.3409
v  -260.5117 -47.6475 12.3409
v  -260.5117 -47.6475 11.8533
v  -259.8346 -31.8083 11.8533
v  -258.6582 -30.9942 11.8533
v  -257.7827 -32.1701 12.3409
v  -258.6582 -30.9942 12.3409
v  -259.8346 -31.8083 12.3409
v  -257.7827 -32.1701 11.8533
v  -267.3495 -36.9986 12.3409
v  -267.3495 -36.9986 11.8533
v  -266.3324 -38.0045 11.8533
v  -266.3324 -38.0045 12.3409
v  -266.1785 -32.7059 12.3409
v  -267.1957 -32.7059 12.3409
v  -267.1957 -32.7059 11.8533
v  -266.1785 -32.7059 11.8533
v  -267.3495 -29.0057 12.3409
v  -266.3324 -27.9998 12.3409
v  -266.3324 -27.9998 11.8533
v  -267.3495 -29.0057 11.8533
v  -252.9371 -27.2286 7.6507
v  -252.9371 -27.2286 11.6535
v  -255.5100 -26.9111 11.3567
v  -255.5100 -26.9111 7.9475
v  -252.9371 -22.9469 7.6507
v  -255.5100 -23.2645 7.9475
v  -252.9371 -22.9469 11.6535
v  -255.5100 -23.2645 11.3567
v  -273.3291 -22.8281 7.4542
v  -273.3291 -26.9111 7.4542
v  -273.3291 -26.9111 11.3567
v  -273.3291 -22.8281 11.3567
v  -270.7864 -26.9111 7.9476
v  -270.7864 -26.9111 11.3567
v  -270.7864 -23.2645 7.9476
v  -270.7864 -23.6594 10.7799
v  -257.9204 -26.7776 8.8794
v  -257.9204 -62.3074 8.8794
v  -257.9204 -62.3074 10.1946
v  -257.9204 -26.7776 10.1946
v  -255.9383 -26.7776 8.8794
v  -255.9383 -62.3074 8.8794
v  -255.9383 -26.7776 10.1946
v  -255.9383 -62.3074 10.1946
# 141 vertices

vn -0.7034 -0.6512 0.2850
vn -0.7032 -0.6511 0.2856
vn -0.7039 -0.6515 0.2831
vn -0.7041 -0.6516 0.2824
vn 0.9249 -0.3482 0.1524
vn 0.6871 -0.6667 0.2889
vn 0.6869 -0.6666 0.2896
vn 0.9101 -0.3794 0.1665
vn 0.0000 -0.3223 -0.9466
vn -0.0000 -0.3223 -0.9466
vn -0.0000 0.0003 -1.0000
vn -0.0000 0.0006 -1.0000
vn -0.9958 0.0914 0.0000
vn -0.9998 -0.0193 0.0000
vn -0.9981 0.0612 -0.0072
vn 0.9999 0.0159 -0.0000
vn 1.0000 -0.0022 -0.0000
vn 0.9999 0.0128 -0.0000
vn -0.7032 0.7110 0.0000
vn 0.6862 0.7274 -0.0000
vn -0.0000 -0.0000 -1.0000
vn 0.0000 -0.0000 -1.0000
vn -0.0000 0.0000 1.0000
vn 0.0000 -0.0003 1.0000
vn 0.0000 0.0000 1.0000
vn -1.0000 0.0000 0.0000
vn 0.9995 -0.0328 -0.0000
vn 0.0000 -0.0006 1.0000
vn -0.9859 0.1586 -0.0538
vn -0.9865 0.1499 -0.0658
vn 0.0000 0.3320 0.9433
vn -0.0000 0.3320 0.9433
vn -0.0340 0.0000 -0.9994
vn -0.0038 -0.0000 -1.0000
vn -0.0012 -0.0009 -1.0000
vn -0.0000 1.0000 0.0000
vn 0.0184 0.9998 -0.0027
vn 0.0181 0.9998 -0.0000
vn -0.0549 -0.0000 0.9985
vn -0.0524 -0.0000 0.9986
vn -0.0501 0.0020 0.9987
vn 0.0000 -1.0000 0.0000
vn -0.0195 -0.9998 0.0021
vn -0.0197 -0.9998 0.0000
vn -0.3372 0.9396 -0.0591
vn -0.3034 0.9513 -0.0536
vn -0.6404 0.7617 -0.0980
vn 0.0579 -0.0051 -0.9983
vn -0.0002 -0.0000 -1.0000
vn 0.0672 -0.0112 -0.9977
vn 0.0464 0.9980 -0.0431
vn 0.0414 0.9981 -0.0455
vn -0.0161 -0.0004 0.9999
vn -0.0046 0.0008 1.0000
vn -0.0525 -0.9978 0.0414
vn -0.0548 -0.9977 0.0404
vn -0.7777 -0.6206 -0.1003
vn 1.0000 -0.0000 0.0000
vn 1.0000 0.0000 -0.0000
vn 0.0943 -0.0083 -0.9955
vn 0.0939 -0.0082 -0.9955
vn 0.0636 -0.0133 -0.9979
vn 0.0004 0.0049 1.0000
vn 0.0184 -0.1221 0.9923
vn 0.0936 -0.0101 -0.9956
vn -0.0018 0.0575 0.9983
vn -0.0540 -0.9985 0.0065
vn -0.0536 -0.9985 0.0047
vn 0.0205 0.9998 -0.0000
vn -0.0047 1.0000 0.0000
vn 0.0627 0.0215 0.9978
vn -0.3993 -0.1276 0.9079
vn -0.0638 -0.5453 0.8358
vn -0.3990 0.9169 -0.0000
vn -0.3990 0.9169 0.0000
vn -0.7110 0.7032 -0.0000
vn 0.0000 0.0000 -1.0000
vn 0.4131 -0.4058 0.8153
vn -0.4686 -0.4110 0.7820
vn 0.1453 -0.8693 0.4724
vn -0.7274 -0.6862 -0.0000
vn -0.7274 -0.6862 0.0000
vn 0.9781 -0.2081 0.0000
vn 0.9781 -0.2081 -0.0000
vn -0.0007 1.0000 -0.0000
vn -0.0007 1.0000 0.0000
vn -0.0290 0.9996 -0.0000
vn -0.0000 -0.0000 1.0000
vn -0.0007 -1.0000 0.0000
vn 0.0274 -0.9996 0.0000
vn -0.8223 0.5690 0.0000
vn -0.0572 0.9984 -0.0000
vn -0.0572 0.9984 0.0000
vn -0.2882 -0.9576 0.0000
vn -0.5972 -0.8021 0.0000
vn 0.0000 -1.0000 -0.0000
vn -0.7110 0.7032 0.0000
vn 0.0734 -0.9973 0.0011
vn 0.0083 -1.0000 0.0013
vn 0.0718 -0.9974 0.0073
vn 0.0737 -0.9973 -0.0000
vn -0.0523 -0.9986 -0.0000
vn 0.0078 -1.0000 -0.0000
vn 0.0000 -0.0000 1.0000
vn -0.0000 0.0000 -1.0000
vn -0.7110 -0.7032 0.0000
vn -0.7274 0.6862 0.0000
vn -0.8160 -0.5781 0.0000
vn 0.5494 -0.8355 -0.0000
vn -0.5690 0.8223 0.0000
vn 0.8021 0.5972 -0.0000
vn -0.9848 0.1736 0.0000
vn 0.9848 -0.1736 -0.0000
vn -0.7032 -0.7110 0.0000
vn -0.9994 0.0358 0.0000
vn -1.0000 -0.0029 0.0000
vn -0.9991 -0.0415 0.0000
vn 0.9996 -0.0290 -0.0000
vn 0.9995 0.0327 -0.0000
vn -0.1225 -0.9925 0.0000
vn -0.0635 -0.9980 0.0000
vn -0.1146 0.0000 -0.9934
vn -0.0595 0.0000 -0.9982
vn -0.0595 -0.0000 -0.9982
vn -0.1225 0.9925 -0.0000
vn -0.1225 0.9925 0.0000
vn -0.0745 0.9972 0.0079
vn -0.0765 0.9971 -0.0000
vn -0.1146 -0.0000 0.9934
vn -0.0780 -0.0000 0.9970
vn -0.0752 0.0114 0.9971
vn -1.0000 -0.0000 0.0000
vn 1.0000 -0.0000 -0.0000
vn 0.1005 0.0000 -0.9949
vn 0.0957 0.0000 -0.9954
vn 0.0753 0.1028 0.9918
vn 0.0000 0.1746 0.9846
vn 0.1749 0.9764 0.1268
vn 0.1905 0.0000 -0.9817
vn 0.2578 0.9637 0.0689
vn 0.1251 0.9879 0.0918
vn 0.1691 0.9856 -0.0000
vn 0.0949 0.1014 0.9903
vn 0.2212 0.0000 0.9752
vn -1.0000 -0.0000 -0.0000
# 145 vertex normals

vt 0.6927 0.3409 0.0000
vt 0.6989 0.3353 0.0000
vt 0.7153 0.3521 0.0000
vt 0.7114 0.3590 0.0000
vt 0.7371 0.3659 0.0000
vt 0.7387 0.3578 0.0000
vt 0.5835 0.8885 0.0000
vt 0.5659 0.8714 0.0000
vt 0.6080 0.8558 0.0000
vt 0.6084 0.8870 0.0000
vt 0.7172 0.8541 0.0000
vt 0.7171 0.8861 0.0000
vt 0.6068 0.8466 0.0000
vt 0.7170 0.8461 0.0000
vt 0.7171 0.8943 0.0000
vt 0.6073 0.8950 0.0000
vt 0.5016 0.8631 0.0000
vt 0.5258 0.8631 0.0000
vt 0.5258 0.8714 0.0000
vt 0.5016 0.8714 0.0000
vt 0.5506 0.8631 0.0000
vt 0.5506 0.8714 0.0000
vt 0.8291 0.8712 0.0000
vt 0.8121 0.8892 0.0000
vt 0.8118 0.8460 0.0000
vt 0.7165 0.8140 0.0000
vt 0.8286 0.8289 0.0000
vt 0.8120 0.8541 0.0000
vt 0.8115 0.8108 0.0000
vt 0.8118 0.8974 0.0000
vt 0.6077 0.8150 0.0000
vt 0.5824 0.8541 0.0000
vt 0.5834 0.8475 0.0000
vt 0.5847 0.8967 0.0000
vt 0.5675 0.8299 0.0000
vt 0.5857 0.8132 0.0000
vt 0.9172 0.0068 0.0000
vt 0.9172 0.1744 0.0000
vt 0.8945 0.1743 0.0000
vt 0.8510 0.0072 0.0000
vt 0.8727 0.0066 0.0000
vt 0.8727 0.1741 0.0000
vt 0.8658 0.1739 0.0000
vt 0.9389 0.0075 0.0000
vt 0.9831 0.0114 0.0000
vt 0.9683 0.1781 0.0000
vt 0.9239 0.1745 0.0000
vt 0.8998 0.8929 0.0000
vt 0.8998 0.9091 0.0000
vt 0.8692 0.9080 0.0000
vt 0.8693 0.8918 0.0000
vt 0.8717 0.2097 0.0000
vt 0.8925 0.2173 0.0000
vt 0.8653 0.2112 0.0000
vt 0.9668 0.2155 0.0000
vt 0.9224 0.2204 0.0000
vt 0.9158 0.2181 0.0000
vt 0.8380 0.8926 0.0000
vt 0.8379 0.9088 0.0000
vt 0.8085 0.7312 0.0000
vt 0.8085 0.6868 0.0000
vt 0.8303 0.6868 0.0000
vt 0.8303 0.7312 0.0000
vt 0.9078 0.2974 0.0000
vt 0.8828 0.3162 0.0000
vt 0.9469 0.3204 0.0000
vt 0.9678 0.2983 0.0000
vt 0.8640 0.2926 0.0000
vt 0.8478 0.2920 0.0000
vt 0.9234 0.2998 0.0000
vt 0.6847 0.0255 0.0000
vt 0.7009 0.0254 0.0000
vt 0.7040 0.1842 0.0000
vt 0.6879 0.1840 0.0000
vt 0.6402 0.0342 0.0000
vt 0.6660 0.1839 0.0000
vt 0.6418 0.1819 0.0000
vt 0.6470 0.1492 0.0000
vt 0.6553 0.1800 0.0000
vt 0.9049 0.7507 0.0000
vt 0.9049 0.7668 0.0000
vt 0.8743 0.7668 0.0000
vt 0.8743 0.7507 0.0000
vt 0.9218 0.4790 0.0000
vt 0.9617 0.4791 0.0000
vt 0.9250 0.5871 0.0000
vt 0.6848 0.2927 0.0000
vt 0.7010 0.2927 0.0000
vt 0.6461 0.2171 0.0000
vt 0.6430 0.1850 0.0000
vt 0.9250 0.3210 0.0000
vt 0.9695 0.3303 0.0000
vt 0.6552 0.1564 0.0000
vt 0.8430 0.7507 0.0000
vt 0.8430 0.7668 0.0000
vt 0.8916 0.8466 0.0000
vt 0.8461 0.8465 0.0000
vt 0.8461 0.8304 0.0000
vt 0.8916 0.8305 0.0000
vt 0.9467 0.6085 0.0000
vt 0.9695 0.5871 0.0000
vt 0.7582 0.0066 0.0000
vt 0.7742 0.0066 0.0000
vt 0.7742 0.1318 0.0000
vt 0.7582 0.1319 0.0000
vt 0.7138 0.0068 0.0000
vt 0.7139 0.1293 0.0000
vt 0.8186 0.0069 0.0000
vt 0.8347 0.0072 0.0000
vt 0.8346 0.1290 0.0000
vt 0.8185 0.1291 0.0000
vt 0.8516 0.6427 0.0000
vt 0.8516 0.6588 0.0000
vt 0.8211 0.6588 0.0000
vt 0.8211 0.6427 0.0000
vt 0.7750 0.2916 0.0000
vt 0.7994 0.3099 0.0000
vt 0.7585 0.2917 0.0000
vt 0.7342 0.3101 0.0000
vt 0.7140 0.2859 0.0000
vt 0.8194 0.2855 0.0000
vt 0.8355 0.2853 0.0000
vt 0.7898 0.6427 0.0000
vt 0.7898 0.6588 0.0000
vt 0.4376 0.6388 0.0000
vt 0.3932 0.6388 0.0000
vt 0.3932 0.6227 0.0000
vt 0.4376 0.6227 0.0000
vt 0.9089 0.3209 0.0000
vt 0.9089 0.5870 0.0000
vt 0.8861 0.6085 0.0000
vt 0.8644 0.3209 0.0000
vt 0.8644 0.5870 0.0000
vt 0.8483 0.5870 0.0000
vt 0.8483 0.3209 0.0000
vt 0.8266 0.6085 0.0000
vt 0.8038 0.3209 0.0000
vt 0.8038 0.5870 0.0000
vt 0.7877 0.5870 0.0000
vt 0.7877 0.3209 0.0000
vt 0.1705 0.5342 0.0000
vt 0.1705 0.5503 0.0000
vt 0.1400 0.5503 0.0000
vt 0.1400 0.5342 0.0000
vt 0.4830 0.6953 0.0000
vt 0.5274 0.6961 0.0000
vt 0.4827 0.7114 0.0000
vt 0.1087 0.5342 0.0000
vt 0.1087 0.5503 0.0000
vt 0.5272 0.7122 0.0000
vt 0.6404 0.2932 0.0000
vt 0.6632 0.3148 0.0000
vt 0.9800 0.5095 0.0000
vt 0.9855 0.5860 0.0000
vt 0.9681 0.4791 0.0000
vt 0.9795 0.4475 0.0000
vt 0.9856 0.3311 0.0000
vt 0.5043 0.3813 0.0000
vt 0.4961 0.3813 0.0000
vt 0.4961 0.3571 0.0000
vt 0.5043 0.3571 0.0000
vt 0.5043 0.3323 0.0000
vt 0.4961 0.3323 0.0000
vt 0.3010 0.9426 0.0000
vt 0.5670 0.9422 0.0000
vt 0.5841 0.9594 0.0000
vt 0.2840 0.9598 0.0000
vt 0.2839 0.9171 0.0000
vt 0.3009 0.8990 0.0000
vt 0.5670 0.8987 0.0000
vt 0.5840 0.9167 0.0000
vt 0.4929 0.8858 0.0000
vt 0.4687 0.8858 0.0000
vt 0.4687 0.8776 0.0000
vt 0.4929 0.8776 0.0000
vt 0.4439 0.8858 0.0000
vt 0.4439 0.8776 0.0000
vt 0.5671 0.9775 0.0000
vt 0.3011 0.9778 0.0000
vt 0.5670 0.9339 0.0000
vt 0.3010 0.9343 0.0000
vt 0.5671 0.9857 0.0000
vt 0.3011 0.9861 0.0000
vt 0.0259 0.1851 0.0000
vt 0.0260 0.1932 0.0000
vt 0.0018 0.1933 0.0000
vt 0.0018 0.1850 0.0000
vt 0.0093 0.1672 0.0000
vt 0.0988 0.1694 0.0000
vt 0.0988 0.1867 0.0000
vt 0.0989 0.1954 0.0000
vt 0.0989 0.2128 0.0000
vt 0.0091 0.2102 0.0000
vt 0.1617 0.1852 0.0000
vt 0.1859 0.1851 0.0000
vt 0.1859 0.1933 0.0000
vt 0.1617 0.1932 0.0000
vt 0.1782 0.1672 0.0000
vt 0.1786 0.2102 0.0000
vt 0.0988 0.1611 0.0000
vt 0.0093 0.1589 0.0000
vt 0.1782 0.1589 0.0000
vt 0.9718 0.7546 0.0000
vt 0.9665 0.8210 0.0000
vt 0.9239 0.8126 0.0000
vt 0.9284 0.7561 0.0000
vt 0.9607 0.6842 0.0000
vt 0.9189 0.6962 0.0000
vt 0.9352 0.6227 0.0000
vt 0.8972 0.6438 0.0000
vt 0.9445 0.8887 0.0000
vt 0.9051 0.8703 0.0000
vt 0.6929 0.4488 0.0000
vt 0.6263 0.4355 0.0000
vt 0.6391 0.3718 0.0000
vt 0.7057 0.3852 0.0000
vt 0.2666 0.2314 0.0000
vt 0.1950 0.2314 0.0000
vt 0.1950 0.1645 0.0000
vt 0.2666 0.1645 0.0000
vt 0.1379 0.5179 0.0000
vt 0.1379 0.2600 0.0000
vt 0.1954 0.2600 0.0000
vt 0.1954 0.5179 0.0000
vt 0.0764 0.5179 0.0000
vt 0.0763 0.2600 0.0000
vt 0.2512 0.5179 0.0000
vt 0.0186 0.2600 0.0000
vt 0.0282 0.5179 0.0000
vt 0.7034 0.5159 0.0000
vt 0.7459 0.5093 0.0000
vt 0.7651 0.5627 0.0000
vt 0.7254 0.5770 0.0000
vt 0.7365 0.4493 0.0000
vt 0.7474 0.4031 0.0000
vt 0.7842 0.6140 0.0000
vt 0.7478 0.6409 0.0000
vt 0.2570 0.2598 0.0000
vt 0.6127 0.0902 0.0000
vt 0.0112 0.0902 0.0000
vt 0.0112 0.0679 0.0000
vt 0.6127 0.0679 0.0000
vt 0.6127 0.1237 0.0000
vt 0.0112 0.1237 0.0000
vt 0.6127 0.1460 0.0000
vt 0.0112 0.1460 0.0000
vt 0.6127 0.0344 0.0000
vt 0.0112 0.0344 0.0000
# 248 texture coords

g SM_Fence_001
usemtl Material__90
s 1
f 1/1/1 2/2/2 3/3/3 
f 3/3/3 4/4/4 1/1/1 
s 2
f 5/5/5 4/4/6 3/3/7 
f 3/3/7 6/6/8 5/5/5 
s 4
f 6/7/9 3/8/9 7/9/10 
f 7/9/10 8/10/10 6/7/9 
s 1
f 9/11/11 10/12/11 7/9/12 
s 2
f 11/13/13 12/14/14 9/11/14 
f 9/11/14 7/9/15 11/13/13 
f 8/10/16 10/12/17 13/15/17 
f 13/15/17 14/16/18 8/10/16 
s 4
f 15/17/19 16/18/19 17/19/19 
f 17/19/19 18/20/19 15/17/19 
s 8
f 19/21/20 20/22/20 17/19/20 
f 17/19/20 16/18/20 19/21/20 
s 1
f 17/23/21 20/24/22 10/12/11 
f 15/25/23 12/14/24 13/26/24 
f 13/26/24 16/27/25 15/25/23 
f 18/28/21 17/23/21 10/12/11 
f 10/12/11 9/11/11 18/28/21 
s 2
f 15/25/26 18/28/26 9/11/14 
f 9/11/14 12/14/14 15/25/26 
s 1
f 13/26/24 19/29/25 16/27/25 
s 2
f 20/24/27 19/30/27 13/15/17 
f 13/15/17 10/12/17 20/24/27 
s 1
f 8/10/12 7/9/12 10/12/11 
f 11/13/28 14/31/28 13/26/24 
f 13/26/24 12/14/24 11/13/28 
s 4
f 7/9/10 3/8/9 2/32/10 
s 2
f 1/33/29 11/13/13 7/9/15 
f 7/9/15 2/32/30 1/33/29 
f 6/7/8 8/10/16 14/16/18 
f 14/16/18 5/34/5 6/7/8 
s 4
f 1/33/31 4/35/32 14/31/32 
f 14/31/32 11/13/31 1/33/31 
f 4/35/32 5/36/32 14/31/32 
s 1
f 21/37/33 22/38/34 23/39/35 
s 2
f 24/40/36 25/41/36 26/42/37 
f 26/42/37 27/43/38 24/40/36 
s 1
f 28/44/39 24/45/39 27/46/40 
f 27/46/40 29/47/41 28/44/39 
s 2
f 21/37/42 28/44/42 29/47/43 
f 29/47/43 22/38/44 21/37/42 
f 30/48/45 31/49/46 32/50/47 
f 32/50/47 33/51/47 30/48/45 
s 1
f 34/52/48 26/42/49 23/39/35 
f 23/39/35 35/53/50 34/52/48 
s 2
f 36/54/51 27/43/38 26/42/37 
f 26/42/37 34/52/52 36/54/51 
s 1
f 29/47/41 36/55/53 37/56/54 
s 2
f 38/57/55 22/38/44 29/47/43 
f 29/47/43 37/56/56 38/57/55 
s 1
f 25/41/33 21/37/33 23/39/35 
f 23/39/35 26/42/49 25/41/33 
s 4
f 39/58/57 33/51/57 32/50/57 
f 32/50/57 40/59/57 39/58/57 
f 24/60/58 28/61/59 21/62/58 
f 21/62/58 25/63/58 24/60/58 
s 1
f 40/64/60 32/65/61 35/53/50 
f 35/53/50 38/57/62 40/64/60 
f 33/66/63 36/55/53 30/67/64 
f 31/68/65 34/52/48 35/53/50 
f 35/53/50 32/65/61 31/68/65 
s 2
f 30/69/45 36/54/51 34/52/52 
f 34/52/52 31/68/46 30/69/45 
s 1
f 39/70/66 37/56/54 36/55/53 
f 36/55/53 33/66/63 39/70/66 
s 2
f 40/64/67 38/57/55 37/56/56 
f 37/56/56 39/70/68 40/64/67 
s 1
f 38/57/62 35/53/50 23/39/35 
f 23/39/35 22/38/34 38/57/62 
f 36/55/53 29/47/41 27/46/40 
s 2
f 41/71/69 42/72/69 43/73/70 
f 43/73/70 44/74/70 41/71/69 
s 1
f 45/75/23 41/71/23 44/74/23 
f 44/74/23 46/76/23 45/75/23 
s 2
f 47/77/71 48/78/72 49/79/73 
f 50/80/74 51/81/75 52/82/76 
f 52/82/76 53/83/76 50/80/74 
s 1
f 43/84/77 54/85/22 51/86/22 
s 2
f 50/87/74 44/74/70 43/73/70 
f 43/73/70 51/88/75 50/87/74 
f 55/89/78 47/90/71 49/79/73 
s 1
f 42/91/22 56/92/22 54/85/22 
f 54/85/22 43/84/77 42/91/22 
s 2
f 57/93/79 46/76/80 49/79/73 
f 49/79/73 48/78/72 57/93/79 
s 4
f 58/94/81 53/83/81 52/82/81 
f 52/82/81 59/95/82 58/94/81 
f 41/96/83 45/97/83 56/98/83 
f 56/98/83 42/99/84 41/96/83 
s 1
f 52/100/22 54/85/22 59/101/77 
s 2
f 60/102/85 61/103/86 62/104/87 
f 62/104/87 63/105/87 60/102/85 
s 1
f 64/106/88 60/102/88 63/105/88 
f 63/105/88 65/107/88 64/106/88 
s 2
f 66/108/89 64/109/89 65/110/90 
f 65/110/90 67/111/90 66/108/89 
s 4
f 68/112/91 69/113/91 70/114/91 
f 70/114/91 71/115/91 68/112/91 
s 1
f 69/116/22 62/104/77 67/111/77 
f 67/111/77 70/117/77 69/116/22 
s 2
f 68/118/92 63/105/87 62/104/87 
f 62/104/87 69/116/93 68/118/92 
s 1
f 65/107/88 71/119/88 72/120/23 
s 2
f 73/121/94 67/111/90 65/110/90 
f 65/110/90 72/122/94 73/121/94 
s 1
f 61/103/77 66/108/77 67/111/77 
f 67/111/77 62/104/77 61/103/77 
s 2
f 72/123/94 71/115/95 70/114/95 
f 70/114/95 73/124/94 72/123/94 
s 4
f 60/125/59 64/126/59 66/127/59 
f 66/127/59 61/128/59 60/125/59 
s 1
f 70/117/77 67/111/77 73/121/77 
f 68/118/88 71/119/88 65/107/88 
f 65/107/88 63/105/88 68/118/88 
f 74/129/22 75/130/22 76/131/77 
f 76/131/77 77/132/77 74/129/22 
s 2
f 77/132/36 78/133/36 79/134/36 
f 79/134/36 80/135/36 77/132/36 
s 1
f 80/135/23 79/134/23 81/136/23 
f 81/136/23 82/137/88 80/135/23 
s 2
f 82/137/96 83/138/96 75/139/96 
f 75/139/96 74/140/96 82/137/96 
s 4
f 79/141/97 78/142/97 76/143/97 
f 76/143/97 81/144/97 79/141/97 
f 74/145/59 77/146/59 82/147/59 
s 1
f 77/132/77 76/131/77 78/133/77 
f 82/137/88 81/136/23 83/138/88 
s 8
f 83/148/82 81/144/82 76/143/82 
f 76/143/82 75/149/82 83/148/82 
s 4
f 82/147/59 77/146/59 80/150/59 
s 1
f 51/86/22 54/85/22 52/100/22 
f 58/151/88 55/89/23 50/87/23 
f 50/87/23 53/152/88 58/151/88 
s 16
f 59/101/98 54/85/99 55/153/100 
f 55/153/100 58/154/101 59/101/98 
s 1
f 50/87/23 46/76/23 44/74/23 
s 2
f 46/76/80 55/89/78 49/79/73 
s 1
f 55/89/23 46/76/23 50/87/23 
f 45/75/23 57/93/23 48/78/88 
f 57/93/23 45/75/23 46/76/23 
s 16
f 56/92/102 47/155/103 54/85/99 
f 48/156/102 56/92/102 45/157/102 
f 56/92/102 48/156/102 47/155/103 
f 55/153/100 54/85/99 47/155/103 
s 1
f 84/129/25 85/130/25 86/131/104 
f 86/131/104 87/132/104 84/129/25 
s 2
f 87/132/96 88/133/96 89/134/96 
f 89/134/96 90/135/96 87/132/96 
s 1
f 90/135/21 89/134/21 91/136/21 
f 91/136/21 92/137/105 90/135/21 
s 2
f 92/137/36 93/138/36 85/139/36 
f 85/139/36 84/140/36 92/137/36 
s 4
f 89/141/106 88/142/106 86/143/106 
f 86/143/106 91/144/106 89/141/106 
f 84/145/59 87/146/59 92/147/59 
s 1
f 87/132/104 86/131/104 88/133/104 
f 92/137/105 91/136/21 93/138/105 
s 8
f 93/148/107 91/144/107 86/143/107 
f 86/143/107 85/149/107 93/148/107 
s 4
f 92/147/59 87/146/59 90/150/59 
s 1
f 94/158/108 95/159/108 96/160/108 
f 96/160/108 97/161/108 94/158/108 
s 2
f 98/162/109 97/161/109 96/160/109 
f 96/160/109 99/163/109 98/162/109 
s 4
f 95/164/21 100/165/22 101/166/21 
f 101/166/21 96/167/21 95/164/21 
f 97/168/25 98/169/23 102/170/25 
f 102/170/25 103/171/25 97/168/25 
s 1
f 104/172/110 103/173/110 101/174/110 
f 101/174/110 100/175/110 104/172/110 
s 2
f 102/176/111 105/177/111 101/174/111 
f 101/174/111 103/173/111 102/176/111 
s 4
f 101/166/21 105/178/21 99/179/22 
f 99/179/22 96/167/21 101/166/21 
f 97/168/25 103/171/25 104/180/23 
f 104/180/23 94/181/25 97/168/25 
s 2
f 95/164/112 94/181/112 104/180/112 
f 104/180/112 100/165/112 95/164/112 
s 1
f 99/179/113 105/178/113 102/182/113 
f 102/182/113 98/183/113 99/179/113 
f 106/184/114 107/185/114 108/186/114 
f 108/186/114 109/187/114 106/184/114 
s 2
f 106/184/25 109/188/25 110/189/25 
f 110/189/25 111/190/25 106/184/25 
f 107/185/21 112/191/21 113/192/21 
f 113/192/21 108/193/21 107/185/21 
s 4
f 106/184/115 111/190/116 112/191/116 
f 112/191/116 107/185/115 106/184/115 
s 1
f 114/194/19 115/195/19 116/196/19 
f 116/196/19 117/197/19 114/194/19 
s 2
f 114/194/25 111/190/25 110/189/25 
f 110/189/25 115/198/25 114/194/25 
f 117/197/21 116/199/21 113/192/21 
f 113/192/21 112/191/21 117/197/21 
s 4
f 114/194/117 117/197/117 112/191/116 
f 112/191/116 111/190/116 114/194/117 
s off
f 113/200/118 110/189/118 109/188/118 
f 109/188/118 108/201/118 113/200/118 
f 116/202/119 115/198/119 110/189/119 
f 110/189/119 113/200/119 116/202/119 
s 1
f 118/203/120 119/204/120 120/205/121 
f 120/205/121 121/206/121 118/203/120 
s 2
f 122/207/122 118/203/122 121/206/123 
f 121/206/123 123/208/124 122/207/122 
s 1
f 124/209/125 122/207/126 123/208/127 
f 123/208/127 125/210/128 124/209/125 
s 2
f 119/204/129 124/211/129 125/212/130 
f 125/212/130 120/205/131 119/204/129 
s 4
f 126/213/132 127/214/132 128/215/132 
f 128/215/132 129/216/132 126/213/132 
f 124/217/133 119/218/133 118/219/133 
f 118/219/133 122/220/59 124/217/133 
s 1
f 130/221/42 121/222/121 120/223/121 
f 120/223/121 131/224/96 130/221/42 
s 2
f 132/225/134 123/226/124 121/222/123 
f 121/222/123 130/221/135 132/225/134 
f 120/223/131 133/227/136 131/224/137 
s 1
f 125/228/128 123/226/127 133/229/138 
f 127/230/96 130/231/42 131/232/96 
f 131/232/96 128/233/96 127/230/96 
s 2
f 126/213/139 132/234/134 130/231/135 
f 130/231/135 127/230/139 126/213/139 
s 1
f 129/216/140 133/235/138 132/234/141 
f 132/234/141 126/213/142 129/216/140 
s 2
f 128/233/143 131/232/137 133/236/136 
f 133/236/136 129/237/144 128/233/143 
s 1
f 133/229/138 123/226/127 132/225/141 
s 2
f 133/227/136 120/223/131 125/238/130 
s 1
f 134/239/132 135/240/145 136/241/145 
f 136/241/145 137/242/132 134/239/132 
s 2
f 138/243/21 139/244/22 135/240/22 
f 135/240/22 134/239/21 138/243/21 
s 1
f 138/243/59 140/245/59 141/246/59 
f 141/246/59 139/244/59 138/243/59 
s 2
f 140/247/23 137/242/23 136/241/23 
f 136/241/23 141/248/23 140/247/23 
# 238 faces

