# 3ds Max Wavefront OBJ Exporter v0.97b - (c)2007 guruware
# File Created: 29.07.2012 16:04:03

mtllib simple table.mtl

#
# object Box090
#

v  2888.3442 76.1201 -2776.2283
v  3087.5444 76.1201 -2776.2283
v  3087.5444 76.1201 -2855.4285
v  2888.3442 76.1201 -2855.4285
v  2888.1443 70.1201 -2776.0283
v  2888.1443 70.1201 -2855.6284
v  3087.7444 70.1201 -2855.6284
v  3087.7444 70.1201 -2776.0283
v  2886.7302 75.9201 -2774.4141
v  2886.7302 70.3201 -2774.4141
v  3089.1584 70.3201 -2774.4141
v  3089.1584 75.9201 -2774.4141
v  3089.3586 75.9201 -2774.6143
v  3089.3586 70.3201 -2774.6143
v  3089.3586 70.3201 -2857.0425
v  3089.3586 75.9201 -2857.0425
v  3089.1584 75.9201 -2857.2427
v  3089.1584 70.3201 -2857.2427
v  2886.7302 70.3201 -2857.2427
v  2886.7302 75.9201 -2857.2427
v  2886.5300 75.9201 -2857.0425
v  2886.5300 70.3201 -2857.0425
v  2886.5300 70.3201 -2774.6143
v  2886.5300 75.9201 -2774.6143
v  3087.8616 76.1201 -2775.6284
v  2888.0271 76.1201 -2775.6284
v  2887.0129 76.1201 -2774.6143
v  3088.8757 76.1201 -2774.6143
v  2887.7444 76.1201 -2775.9111
v  2887.7444 76.1201 -2855.7456
v  2886.7302 76.1201 -2856.7598
v  2886.7302 76.1201 -2774.8970
v  2888.0271 76.1201 -2856.0283
v  3087.8616 76.1201 -2856.0283
v  3088.8757 76.1201 -2857.0425
v  2887.0129 76.1201 -2857.0425
v  3088.1443 76.1201 -2855.7456
v  3088.1443 76.1201 -2775.9111
v  3089.1584 76.1201 -2774.8970
v  3089.1584 76.1201 -2856.7598
v  2887.7444 70.1201 -2855.7456
v  2887.7444 70.1201 -2775.9111
v  2886.7302 70.1201 -2774.8970
v  2886.7302 70.1201 -2856.7598
v  2888.0271 70.1201 -2775.6284
v  3087.8616 70.1201 -2775.6284
v  3088.8757 70.1201 -2774.6143
v  2887.0129 70.1201 -2774.6143
v  3088.1443 70.1201 -2775.9111
v  3088.1443 70.1201 -2855.7456
v  3089.1584 70.1201 -2856.7598
v  3089.1584 70.1201 -2774.8970
v  3087.8616 70.1201 -2856.0283
v  2888.0271 70.1201 -2856.0283
v  2887.0129 70.1201 -2857.0425
v  3088.8757 70.1201 -2857.0425
v  2888.1443 76.1201 -2776.0283
v  3087.7444 76.1201 -2776.0283
v  2888.1443 76.1201 -2855.6284
v  3087.7444 76.1201 -2855.6284
v  3087.7444 75.8201 -2776.0283
v  2888.1443 75.8201 -2776.0283
v  3087.7444 75.8201 -2855.6284
v  2888.1443 75.8201 -2855.6284
v  3087.5444 75.8201 -2776.2283
v  2888.3442 75.8201 -2776.2283
v  3087.5444 75.8201 -2855.4285
v  2888.3442 75.8201 -2855.4285
v  2886.9817 69.9503 -2856.9380
v  2886.7817 70.1503 -2856.7380
v  2892.7817 70.1503 -2856.7380
v  2892.5818 69.9503 -2856.9380
v  2886.9817 0.3503 -2856.9380
v  2886.7817 0.1503 -2856.7380
v  2892.5818 0.3503 -2856.9380
v  2892.7817 0.1503 -2856.7380
v  2887.5818 0.9503 -2856.9380
v  2887.7817 1.1503 -2856.7380
v  2891.7817 1.1503 -2856.7380
v  2891.9817 0.9503 -2856.9380
v  2887.5818 69.3504 -2856.9380
v  2887.7817 69.1504 -2856.7380
v  2891.9817 69.3504 -2856.9380
v  2891.7817 69.1504 -2856.7380
v  2886.7817 70.1503 -2850.7380
v  2892.7817 70.1503 -2850.7380
v  2886.7817 0.1503 -2850.7380
v  2892.7817 0.1503 -2850.7380
v  2887.7817 1.1503 -2850.7380
v  2891.7817 1.1503 -2850.7380
v  2887.7817 69.1504 -2850.7380
v  2891.7817 69.1504 -2850.7380
v  2886.9817 69.9503 -2850.5381
v  2892.5818 69.9503 -2850.5381
v  2886.9817 0.3503 -2850.5381
v  2892.5818 0.3503 -2850.5381
v  2887.5818 0.9503 -2850.5381
v  2891.9817 0.9503 -2850.5381
v  2887.5818 69.3504 -2850.5381
v  2891.9817 69.3504 -2850.5381
v  2886.7576 69.9503 -2774.8347
v  2886.9575 70.1503 -2774.6348
v  2886.9575 70.1503 -2780.6348
v  2886.7576 69.9503 -2780.4348
v  2886.7576 0.3503 -2774.8347
v  2886.9575 0.1503 -2774.6348
v  2886.7576 0.3503 -2780.4348
v  2886.9575 0.1503 -2780.6348
v  2886.7576 0.9503 -2775.4348
v  2886.9575 1.1503 -2775.6348
v  2886.9575 1.1503 -2779.6348
v  2886.7576 0.9503 -2779.8347
v  2886.7576 69.3504 -2775.4348
v  2886.9575 69.1504 -2775.6348
v  2886.7576 69.3504 -2779.8347
v  2886.9575 69.1504 -2779.6348
v  2892.9575 70.1503 -2774.6348
v  2892.9575 70.1503 -2780.6348
v  2892.9575 0.1503 -2774.6348
v  2892.9575 0.1503 -2780.6348
v  2892.9575 1.1503 -2775.6348
v  2892.9575 1.1503 -2779.6348
v  2892.9575 69.1504 -2775.6348
v  2892.9575 69.1504 -2779.6348
v  2893.1575 69.9503 -2774.8347
v  2893.1575 69.9503 -2780.4348
v  2893.1575 0.3503 -2774.8347
v  2893.1575 0.3503 -2780.4348
v  2893.1575 0.9503 -2775.4348
v  2893.1575 0.9503 -2779.8347
v  2893.1575 69.3504 -2775.4348
v  2893.1575 69.3504 -2779.8347
v  3089.0667 69.9503 -2856.7595
v  3088.8667 70.1503 -2856.9595
v  3088.8667 70.1503 -2850.9595
v  3089.0667 69.9503 -2851.1594
v  3089.0667 0.3503 -2856.7595
v  3088.8667 0.1503 -2856.9595
v  3089.0667 0.3503 -2851.1594
v  3088.8667 0.1503 -2850.9595
v  3089.0667 0.9503 -2856.1594
v  3088.8667 1.1503 -2855.9595
v  3088.8667 1.1503 -2851.9595
v  3089.0667 0.9503 -2851.7595
v  3089.0667 69.3504 -2856.1594
v  3088.8667 69.1504 -2855.9595
v  3089.0667 69.3504 -2851.7595
v  3088.8667 69.1504 -2851.9595
v  3082.8667 70.1503 -2856.9595
v  3082.8667 70.1503 -2850.9595
v  3082.8667 0.1503 -2856.9595
v  3082.8667 0.1503 -2850.9595
v  3082.8667 1.1503 -2855.9595
v  3082.8667 1.1503 -2851.9595
v  3082.8667 69.1504 -2855.9595
v  3082.8667 69.1504 -2851.9595
v  3082.6667 69.9503 -2856.7595
v  3082.6667 69.9503 -2851.1594
v  3082.6667 0.3503 -2856.7595
v  3082.6667 0.3503 -2851.1594
v  3082.6667 0.9503 -2856.1594
v  3082.6667 0.9503 -2851.7595
v  3082.6667 69.3504 -2856.1594
v  3082.6667 69.3504 -2851.7595
v  3083.1807 69.9503 -2781.0479
v  3082.9807 70.1503 -2780.8479
v  3088.9807 70.1503 -2780.8479
v  3088.7808 69.9503 -2781.0479
v  3083.1807 0.3503 -2781.0479
v  3082.9807 0.1503 -2780.8479
v  3088.7808 0.3503 -2781.0479
v  3088.9807 0.1503 -2780.8479
v  3083.7808 0.9503 -2781.0479
v  3083.9807 1.1503 -2780.8479
v  3087.9807 1.1503 -2780.8479
v  3088.1807 0.9503 -2781.0479
v  3083.7808 69.3504 -2781.0479
v  3083.9807 69.1504 -2780.8479
v  3088.1807 69.3504 -2781.0479
v  3087.9807 69.1504 -2780.8479
v  3082.9807 70.1503 -2774.8479
v  3088.9807 70.1503 -2774.8479
v  3082.9807 0.1503 -2774.8479
v  3088.9807 0.1503 -2774.8479
v  3083.9807 1.1503 -2774.8479
v  3087.9807 1.1503 -2774.8479
v  3083.9807 69.1504 -2774.8479
v  3087.9807 69.1504 -2774.8479
v  3083.1807 69.9503 -2774.6479
v  3088.7808 69.9503 -2774.6479
v  3083.1807 0.3503 -2774.6479
v  3088.7808 0.3503 -2774.6479
v  3083.7808 0.9503 -2774.6479
v  3088.1807 0.9503 -2774.6479
v  3083.7808 69.3504 -2774.6479
v  3088.1807 69.3504 -2774.6479
# 196 vertices

vn 0.0000 1.0000 -0.0000
vn 0.0000 -1.0000 -0.0000
vn 0.0000 0.0000 1.0000
vn 1.0000 0.0000 -0.0000
vn 0.0000 0.0000 -1.0000
vn -1.0000 0.0000 -0.0000
vn 0.3574 0.8629 0.3574
vn -0.3574 0.8629 0.3574
vn -0.3574 0.8629 -0.3574
vn 0.3574 0.8629 -0.3574
vn -0.3574 -0.8629 -0.3574
vn -0.3574 -0.8629 0.3574
vn 0.3574 -0.8629 0.3574
vn 0.3574 -0.8629 -0.3574
vn -0.7071 0.0000 0.7071
vn 0.7071 0.0000 0.7071
vn 0.7071 0.0000 -0.7071
vn -0.7071 0.0000 -0.7071
vn 0.0000 0.7071 0.7071
vn -0.7071 0.7071 -0.0000
vn 0.0000 0.7071 -0.7071
vn 0.7071 0.7071 -0.0000
vn -0.7071 -0.7071 -0.0000
vn 0.0000 -0.7071 0.7071
vn 0.7071 -0.7071 -0.0000
vn 0.0000 -0.7071 -0.7071
vn -0.7071 -0.0000 0.7071
vn 0.7071 -0.0000 0.7071
vn 0.0000 -0.0000 1.0000
vn -0.0000 -0.0000 1.0000
vn 0.7071 -0.0000 -0.7071
vn -0.7071 -0.0000 -0.7071
vn -1.0000 -0.0000 -0.0000
# 33 vertex normals

vt 0.9990 0.0025 0.0000
vt 0.0010 0.0025 0.0000
vt 0.0010 0.9975 0.0000
vt 0.9990 0.9975 0.0000
vt 0.0010 0.0333 0.0000
vt 0.0010 0.9667 0.0000
vt 0.9990 0.9667 0.0000
vt 0.9990 0.0333 0.0000
vt 0.0024 0.0333 0.0000
vt 0.0024 0.9667 0.0000
vt 0.9976 0.9667 0.0000
vt 0.9976 0.0333 0.0000
vt 0.1400 0.0000 0.0000
vt 0.8572 0.0000 0.0000
vt 0.9966 0.0000 0.0000
vt 0.8586 0.8550 0.0000
vt 0.1414 0.1379 0.0000
vt 0.9986 0.8586 0.0000
vt 0.0014 0.8586 0.0000
vt 0.0014 0.1414 0.0000
vt 0.9986 0.1414 0.0000
vt 0.1380 0.8586 0.0000
vt 0.0000 0.0035 0.0000
vt 0.8552 0.1414 0.0000
vt 0.0034 1.0000 0.0000
vt 0.1414 0.1450 0.0000
vt 0.8586 0.8621 0.0000
vt 0.8620 0.1414 0.0000
vt 1.0000 0.9965 0.0000
vt 0.1448 0.8586 0.0000
vt 0.8600 1.0000 0.0000
vt 0.1428 1.0000 0.0000
vt 0.9492 0.0418 0.0000
vt 0.7867 0.0120 0.0000
vt 0.9624 0.0130 0.0000
vt 0.9469 -0.0287 0.0000
vt 0.9909 0.0282 0.0000
vt 0.9872 0.1342 0.0000
vt 0.9760 0.0547 0.0000
vt 0.8247 0.1717 0.0000
vt 0.0376 0.9870 0.0000
vt 0.0531 1.0287 0.0000
vt 0.0091 0.9718 0.0000
vt 0.0128 0.8658 0.0000
vt 0.0240 0.9453 0.0000
vt 0.1753 0.8283 0.0000
vt 0.0508 0.9582 0.0000
vt 0.2133 0.9880 0.0000
vt 1.0447 0.0333 0.0000
vt 1.0447 0.9667 0.0000
vt -0.0447 0.9667 0.0000
vt -0.0447 0.0333 0.0000
vt -0.0462 0.9667 0.0000
vt -0.0462 0.0333 0.0000
vt -0.0950 -0.1332 0.0000
vt 0.6221 -0.1332 0.0000
vt 1.0018 0.0029 0.0000
vt 0.8664 1.0970 0.0000
vt 0.8664 0.3798 0.0000
vt -0.2284 0.9643 0.0000
vt 0.4888 0.2472 0.0000
vt -0.0018 0.9971 0.0000
vt 0.1336 -0.0970 0.0000
vt 0.1336 0.6202 0.0000
vt 1.2284 0.0357 0.0000
vt 0.5112 0.7528 0.0000
vt 1.0950 1.1332 0.0000
vt 0.3779 1.1332 0.0000
vt 0.0372 0.0000 0.0000
vt 0.2500 0.0431 0.0000
vt 0.0000 0.0431 0.0000
vt 0.0000 0.0000 0.0000
vt 0.5000 0.0000 0.0000
vt 0.5000 0.0431 0.0000
vt 0.5372 0.0000 0.0000
vt 0.7500 0.0431 0.0000
vt 1.0000 0.0000 0.0000
vt 1.0000 0.0431 0.0000
vt 0.0302 0.0000 0.0000
vt 0.5302 0.0000 0.0000
vt 0.2500 0.9569 0.0000
vt 0.0000 0.9569 0.0000
vt 0.5000 0.9569 0.0000
vt 0.7500 0.9569 0.0000
vt 1.0000 0.9569 0.0000
vt 0.0372 1.0000 0.0000
vt 0.0000 1.0000 0.0000
vt 0.5000 1.0000 0.0000
vt 0.5372 1.0000 0.0000
vt 1.0000 1.0000 0.0000
vt 0.0302 1.0000 0.0000
vt 0.5302 1.0000 0.0000
vt 0.1071 0.0086 0.0000
vt 0.1071 0.9914 0.0000
vt 0.8929 0.0086 0.0000
vt 0.8929 0.9914 0.0000
# 96 texture coords

g Box090
usemtl wire_000000000
s 2
f 1/1/1 2/2/1 3/3/1 4/4/1 
s 4
f 5/2/2 6/3/2 7/4/2 8/1/2 
s 8
f 9/5/3 10/6/3 11/7/3 12/8/3 
s 16
f 13/9/4 14/10/4 15/11/4 16/12/4 
s 32
f 17/5/5 18/6/5 19/7/5 20/8/5 
s 64
f 21/9/6 22/10/6 23/11/6 24/12/6 
s off
f 25/13/1 26/14/1 27/13/1 28/14/1 
f 29/15/1 30/16/1 31/17/1 32/15/1 
f 33/18/1 34/19/1 35/20/1 36/21/1 
f 37/22/1 38/23/1 39/23/1 40/24/1 
f 41/25/2 42/26/2 43/27/2 44/25/2 
f 45/20/2 46/21/2 47/18/2 48/19/2 
f 49/28/2 50/29/2 51/29/2 52/30/2 
f 53/31/2 54/32/2 55/31/2 56/32/2 
f 57/1/1 29/15/1 26/14/1 
f 25/13/1 38/23/1 58/2/1 
f 59/4/1 33/18/1 30/16/1 
f 37/22/1 34/19/1 60/3/1 
f 45/20/2 42/26/2 5/2/2 
f 8/1/2 49/28/2 46/21/2 
f 41/25/2 54/32/2 6/3/2 
f 7/4/2 53/31/2 50/29/2 
f 28/14/7 12/8/7 13/33/7 39/34/7 
f 32/15/8 24/12/8 9/35/8 27/36/8 
f 36/21/9 20/8/9 21/37/9 31/38/9 
f 40/24/10 16/12/10 17/39/10 35/40/10 
f 44/25/11 22/10/11 19/41/11 55/42/11 
f 48/19/12 10/6/12 23/43/12 43/44/12 
f 52/30/13 14/10/13 11/45/13 47/46/13 
f 56/32/14 18/6/14 15/47/14 51/48/14 
f 25/13/1 58/2/1 57/1/1 26/14/1 
f 37/22/1 60/3/1 58/2/1 38/23/1 
f 33/18/1 59/4/1 60/3/1 34/19/1 
f 29/15/1 57/1/1 59/4/1 30/16/1 
f 41/25/2 6/3/2 5/2/2 42/26/2 
f 53/31/2 7/4/2 6/3/2 54/32/2 
f 49/28/2 8/1/2 7/4/2 50/29/2 
f 45/20/2 5/2/2 8/1/2 46/21/2 
f 9/49/15 24/12/15 23/11/15 10/50/15 
f 11/51/16 14/10/16 13/9/16 12/52/16 
f 15/53/17 18/6/17 17/5/17 16/54/17 
f 19/51/18 22/10/18 21/9/18 20/52/18 
f 12/8/19 28/14/19 27/13/19 9/5/19 
f 24/12/20 32/15/20 31/17/20 21/9/20 
f 20/8/21 36/21/21 35/20/21 17/5/21 
f 16/12/22 40/24/22 39/23/22 13/9/22 
f 22/10/23 44/25/23 43/27/23 23/11/23 
f 10/6/24 48/19/24 47/18/24 11/7/24 
f 14/10/25 52/30/25 51/29/25 15/11/25 
f 18/6/26 56/32/26 55/31/26 19/7/26 
f 38/55/1 25/13/1 28/14/1 39/56/1 
f 26/57/1 29/15/1 32/15/1 27/57/1 
f 30/58/1 33/18/1 36/21/1 31/59/1 
f 34/60/1 37/22/1 40/24/1 35/61/1 
f 54/62/2 41/25/2 44/25/2 55/62/2 
f 42/63/2 45/20/2 48/19/2 43/64/2 
f 46/65/2 49/28/2 52/30/2 47/66/2 
f 50/67/2 53/31/2 56/32/2 51/68/2 
f 57/1/5 58/2/5 61/2/5 62/1/5 
f 58/2/6 60/3/6 63/3/6 61/2/6 
f 60/3/3 59/4/3 64/4/3 63/3/3 
f 59/4/4 57/1/4 62/1/4 64/4/4 
f 62/1/1 61/2/1 65/2/1 66/1/1 
f 61/2/1 63/3/1 67/3/1 65/2/1 
f 63/3/1 64/4/1 68/4/1 67/3/1 
f 64/4/1 62/1/1 66/1/1 68/4/1 
f 66/1/3 65/2/3 2/2/3 1/1/3 
f 65/2/4 67/3/4 3/3/4 2/2/4 
f 67/3/5 68/4/5 4/4/5 3/3/5 
f 68/4/6 66/1/6 1/1/6 4/4/6 
s 2
f 69/69/21 70/70/21 71/71/21 72/72/21 
s 4
f 73/73/18 74/74/18 70/70/18 69/69/18 
s 8
f 75/75/26 76/76/26 74/74/26 73/73/26 
s 17
f 72/77/17 71/78/17 76/76/17 75/75/17 
s 2
f 77/79/21 78/70/21 79/71/21 80/72/21 
s 4
f 81/73/17 82/74/17 78/70/17 77/79/17 
s 8
f 83/80/26 84/76/26 82/74/26 81/73/26 
s 17
f 80/77/18 79/78/18 84/76/18 83/80/18 
s 64
f 70/70/1 85/81/1 86/82/1 71/71/1 
s 128
f 74/74/6 87/83/6 85/81/6 70/70/6 
s 256
f 76/76/2 88/84/2 87/83/2 74/74/2 
s 544
f 71/78/4 86/85/4 88/84/4 76/76/4 
s 64
f 78/70/1 89/81/1 90/82/1 79/71/1 
s 128
f 82/74/4 91/83/4 89/81/4 78/70/4 
s 256
f 84/76/2 92/84/2 91/83/2 82/74/2 
s 544
f 79/78/6 90/85/6 92/84/6 84/76/6 
s 2
f 85/81/19 93/86/19 94/87/19 86/82/19 
s 4
f 87/83/27 95/88/27 93/86/27 85/81/27 
s 8
f 88/84/24 96/89/24 95/88/24 87/83/24 
s 17
f 86/85/28 94/90/28 96/89/28 88/84/28 
s 2
f 89/81/19 97/91/19 98/87/19 90/82/19 
s 4
f 91/83/28 99/88/28 97/91/28 89/81/28 
s 8
f 92/84/24 100/92/24 99/88/24 91/83/24 
s 17
f 90/85/27 98/90/27 100/92/27 92/84/27 
s 1024
f 97/93/29 99/94/30 93/87/30 95/72/29 
f 98/95/30 97/93/29 95/72/29 96/77/30 
f 98/95/30 96/77/30 94/90/29 100/96/29 
f 100/96/29 94/90/29 93/87/30 99/94/30 
f 81/94/5 77/93/5 73/72/5 69/87/5 
f 83/96/5 81/94/5 69/87/5 72/90/5 
f 73/72/5 77/93/5 80/95/5 75/77/5 
f 72/90/5 75/77/5 80/95/5 83/96/5 
s 2
f 101/69/20 102/70/20 103/71/20 104/72/20 
s 4
f 105/73/15 106/74/15 102/70/15 101/69/15 
s 8
f 107/75/23 108/76/23 106/74/23 105/73/23 
s 17
f 104/77/18 103/78/18 108/76/18 107/75/18 
s 2
f 109/79/20 110/70/20 111/71/20 112/72/20 
s 4
f 113/73/18 114/74/18 110/70/18 109/79/18 
s 8
f 115/80/23 116/76/23 114/74/23 113/73/23 
s 17
f 112/77/15 111/78/15 116/76/15 115/80/15 
s 64
f 102/70/1 117/81/1 118/82/1 103/71/1 
s 128
f 106/74/3 119/83/3 117/81/3 102/70/3 
s 256
f 108/76/2 120/84/2 119/83/2 106/74/2 
s 544
f 103/78/5 118/85/5 120/84/5 108/76/5 
s 64
f 110/70/1 121/81/1 122/82/1 111/71/1 
s 128
f 114/74/5 123/83/5 121/81/5 110/70/5 
s 256
f 116/76/2 124/84/2 123/83/2 114/74/2 
s 544
f 111/78/3 122/85/3 124/84/3 116/76/3 
s 2
f 117/81/22 125/86/22 126/87/22 118/82/22 
s 4
f 119/83/28 127/88/16 125/86/28 117/81/28 
s 8
f 120/84/25 128/89/25 127/88/25 119/83/25 
s 17
f 118/85/31 126/90/17 128/89/31 120/84/31 
s 2
f 121/81/22 129/91/22 130/87/22 122/82/22 
s 4
f 123/83/31 131/88/17 129/91/31 121/81/31 
s 8
f 124/84/25 132/92/25 131/88/25 123/83/25 
s 17
f 122/85/28 130/90/16 132/92/28 124/84/28 
s 1024
f 129/93/4 131/94/4 125/87/4 127/72/4 
f 130/95/4 129/93/4 127/72/4 128/77/4 
f 130/95/4 128/77/4 126/90/4 132/96/4 
f 132/96/4 126/90/4 125/87/4 131/94/4 
f 113/94/6 109/93/6 105/72/6 101/87/6 
f 115/96/6 113/94/6 101/87/6 104/90/6 
f 105/72/6 109/93/6 112/95/6 107/77/6 
f 104/90/6 107/77/6 112/95/6 115/96/6 
s 2
f 133/69/22 134/70/22 135/71/22 136/72/22 
s 4
f 137/73/17 138/74/17 134/70/17 133/69/17 
s 8
f 139/75/25 140/76/25 138/74/25 137/73/25 
s 17
f 136/77/16 135/78/16 140/76/16 139/75/16 
s 2
f 141/79/22 142/70/22 143/71/22 144/72/22 
s 4
f 145/73/16 146/74/16 142/70/16 141/79/16 
s 8
f 147/80/25 148/76/25 146/74/25 145/73/25 
s 17
f 144/77/17 143/78/17 148/76/17 147/80/17 
s 64
f 134/70/1 149/81/1 150/82/1 135/71/1 
s 128
f 138/74/5 151/83/5 149/81/5 134/70/5 
s 256
f 140/76/2 152/84/2 151/83/2 138/74/2 
s 544
f 135/78/3 150/85/3 152/84/3 140/76/3 
s 64
f 142/70/1 153/81/1 154/82/1 143/71/1 
s 128
f 146/74/3 155/83/3 153/81/3 142/70/3 
s 256
f 148/76/2 156/84/2 155/83/2 146/74/2 
s 544
f 143/78/5 154/85/5 156/84/5 148/76/5 
s 2
f 149/81/20 157/86/20 158/87/20 150/82/20 
s 4
f 151/83/32 159/88/32 157/86/32 149/81/18 
s 8
f 152/84/23 160/89/23 159/88/23 151/83/23 
s 17
f 150/85/27 158/90/15 160/89/27 152/84/27 
s 2
f 153/81/20 161/91/20 162/87/20 154/82/20 
s 4
f 155/83/27 163/88/27 161/91/27 153/81/15 
s 8
f 156/84/23 164/92/23 163/88/23 155/83/23 
s 17
f 154/85/32 162/90/18 164/92/32 156/84/32 
s 1024
f 161/93/6 163/94/33 157/87/33 159/72/6 
f 162/95/33 161/93/6 159/72/6 160/77/33 
f 162/95/33 160/77/33 158/90/6 164/96/6 
f 164/96/6 158/90/6 157/87/33 163/94/33 
f 145/94/4 141/93/4 137/72/4 133/87/4 
f 147/96/4 145/94/4 133/87/4 136/90/4 
f 137/72/4 141/93/4 144/95/4 139/77/4 
f 136/90/4 139/77/4 144/95/4 147/96/4 
s 2
f 165/69/21 166/70/21 167/71/21 168/72/21 
s 4
f 169/73/18 170/74/18 166/70/18 165/69/18 
s 8
f 171/75/26 172/76/26 170/74/26 169/73/26 
s 17
f 168/77/17 167/78/17 172/76/17 171/75/17 
s 2
f 173/79/21 174/70/21 175/71/21 176/72/21 
s 4
f 177/73/17 178/74/17 174/70/17 173/79/17 
s 8
f 179/80/26 180/76/26 178/74/26 177/73/26 
s 17
f 176/77/18 175/78/18 180/76/18 179/80/18 
s 64
f 166/70/1 181/81/1 182/82/1 167/71/1 
s 128
f 170/74/6 183/83/6 181/81/6 166/70/6 
s 256
f 172/76/2 184/84/2 183/83/2 170/74/2 
s 544
f 167/78/4 182/85/4 184/84/4 172/76/4 
s 64
f 174/70/1 185/81/1 186/82/1 175/71/1 
s 128
f 178/74/4 187/83/4 185/81/4 174/70/4 
s 256
f 180/76/2 188/84/2 187/83/2 178/74/2 
s 544
f 175/78/6 186/85/6 188/84/6 180/76/6 
s 2
f 181/81/19 189/86/19 190/87/19 182/82/19 
s 4
f 183/83/27 191/88/27 189/86/27 181/81/27 
s 8
f 184/84/24 192/89/24 191/88/24 183/83/24 
s 17
f 182/85/28 190/90/28 192/89/28 184/84/28 
s 2
f 185/81/19 193/91/19 194/87/19 186/82/19 
s 4
f 187/83/28 195/88/28 193/91/28 185/81/28 
s 8
f 188/84/24 196/92/24 195/88/24 187/83/24 
s 17
f 186/85/27 194/90/27 196/92/27 188/84/27 
s 1024
f 193/93/29 195/94/30 189/87/30 191/72/29 
f 194/95/30 193/93/29 191/72/29 192/77/30 
f 194/95/30 192/77/30 190/90/29 196/96/29 
f 196/96/29 190/90/29 189/87/30 195/94/30 
f 177/94/5 173/93/5 169/72/5 165/87/5 
f 179/96/5 177/94/5 165/87/5 168/90/5 
f 169/72/5 173/93/5 176/95/5 171/77/5 
f 168/90/5 171/77/5 176/95/5 179/96/5 
# 190 polygons - 8 triangles

